<?xml version="1.0" encoding="UTF-8"?><svg xmlns="http://www.w3.org/2000/svg" viewBox="0 0 28 24.48"><defs><style>.d{fill:#d2d2d2;}</style></defs><g id="a"/><g id="b"><g id="c"><path class="d" d="M26.69,3.48H14.12c-2.29,0-4.57-.01-6.87,.02-.51,.01-.73-.16-.83-.66-.13-.66-.32-1.32-.49-1.97C5.74,.14,5.57,0,4.79,0,4.09,0,3.39,0,2.69,0,2.05,0,1.41,0,.77,.04,.33,.05,.01,.33,0,.82c-.01,.48,.23,.77,.7,.86,.19,.03,.38,.06,.57,.06,.79,.01,1.6,.05,2.39-.01,.58-.05,.75,.2,.87,.71,1.35,5.48,2.72,10.98,4.09,16.47,.28,1.13,.41,1.22,1.61,1.22h13.15c.94,0,1.35-.28,1.35-.91,0-.58-.42-.85-1.33-.85H11.47c-.27,0-.55,.02-.81-.03-.15-.03-.36-.17-.41-.32-.21-.72-.38-1.45-.59-2.28h14.41c1.01,0,1.16-.12,1.41-1.08,.8-3.21,1.62-6.43,2.42-9.64,.3-1.18,.01-1.54-1.2-1.54ZM11.16,20.98c-.98,0-1.77,.82-1.76,1.78,0,.96,.8,1.73,1.76,1.72,.96,.02,1.74-.75,1.76-1.7,0-.02,0-.05,0-.07-.02-.95-.81-1.73-1.76-1.73Zm10.72,0c-.95,0-1.73,.78-1.75,1.73-.01,.99,.77,1.77,1.77,1.77s1.73-.76,1.75-1.72c0-.98-.79-1.78-1.77-1.78Z"/></g></g></svg>