<?xml version="1.0" encoding="UTF-8"?><svg xmlns="http://www.w3.org/2000/svg" viewBox="0 0 281.62 76"><defs><style>.d,.e{fill:#aa25e8;}.e{fill-rule:evenodd;}.f{fill:#12db9e;}</style></defs><g id="a"/><g id="b"><g id="c"><g><path class="e" d="M76,38c0,20.99-17.01,38-38,38.01C17.02,76,0,58.99,0,38,0,17.02,17.01,0,38,0c20.99,0,38,17.01,38,38ZM36.64,12.65c3.59-.18,7.17,.42,10.52,1.73,1.49-4.19,3.68-6.84,6.24-6.96,5.14-.24,9.79,9.79,10.39,22.42,.26,4.52-.12,9.05-1.13,13.47-2.94,13.7-16.43,22.41-30.12,19.47S10.12,46.35,13.06,32.65c2.41-11.24,12.09-19.45,23.58-20.01Z"/><path class="d" d="M30.61,24.86l24.75,16.66v.1h-1.12l-7.65,.04c-1.2,0-2.4,.03-3.63,.03-.2-.03-.4,.09-.45,.28-1.91,4.33-3.84,8.65-5.78,12.98-.05,.1-.1,.19-.18,.37l-6.02-30.43,.08-.05Zm83.42,23.11c-.45,.37-.94,.73-1.41,1.08-.47,.35-.98,.72-1.52,1.09-1.81,1.21-4.19,1.81-7.12,1.81-4.11,0-7.42-1.45-9.91-4.34-2.39-2.8-3.58-6.54-3.59-11.22s1.16-8.42,3.49-11.22c2.42-2.9,5.74-4.35,9.97-4.35,1.86,.01,3.7,.41,5.4,1.17,.31,.16,.63,.3,.96,.43,.31,.13,.61,.28,.91,.45V13.2c0-.4,.15-.78,.43-1.06,.28-.3,.67-.47,1.08-.45h8.69c.83,.02,1.49,.69,1.52,1.51V49.83c-.02,.83-.69,1.49-1.52,1.52h-4.66c-.29,0-.57-.09-.81-.25-.23-.13-.43-.32-.56-.56l-1.36-2.58Zm-3.51-6.19c.24-.15,.47-.31,.68-.48v-10.43c-.19-.07-.38-.16-.56-.26-.22-.12-.45-.25-.74-.38-.81-.49-1.74-.74-2.68-.71-1.81,0-3.19,.67-4.14,2-.95,1.33-1.43,3.16-1.43,5.48,0,2.02,.41,3.61,1.24,4.77,.79,1.15,2.12,1.81,3.51,1.76,1.09-.06,2.14-.43,3.03-1.06,.43-.3,.8-.51,1.08-.69Zm40.86,7.65c-.66,.43-1.36,.79-2.1,1.06-.83,.32-1.69,.58-2.55,.78-.93,.22-1.88,.39-2.83,.5-.97,.12-1.95,.18-2.93,.18-4.95,0-8.91-1.38-11.88-4.14-2.96-2.76-4.45-6.61-4.45-11.53,0-4.23,1.33-7.74,3.99-10.51,2.66-2.77,6.04-4.17,10.12-4.18,4.08,0,7.38,1.41,9.91,4.24,2.42,2.72,3.63,6.31,3.63,10.76v2.22c0,.4-.15,.78-.43,1.06-.27,.29-.64,.46-1.04,.45h-14.4c.21,.49,.52,.94,.91,1.31,1.01,1.01,2.74,1.51,5.21,1.51,1.18,0,2.35-.15,3.49-.45,.61-.17,1.08-.3,1.41-.41,.24-.06,.48-.15,.71-.25,.36-.17,.78-.17,1.14,0,.37,.15,.67,.44,.83,.81l1.87,4.75-.6,1.81h0Zm-15.42-15.82h5.26c-.07-.97-.36-1.91-.86-2.75-.34-.6-.98-.98-1.67-.99-.89-.01-1.7,.53-2.02,1.36-.37,.75-.61,1.56-.71,2.39h0Zm42.45-11.27c.39,0,.76,.15,1.03,.43,.28,.29,.44,.68,.43,1.09v6.57l-9.91,11.02h8.95c.83,.02,1.5,.69,1.52,1.51v6.87c.01,.41-.15,.81-.45,1.09-.28,.29-.66,.45-1.06,.45h-23.45c-.39,0-.77-.16-1.04-.45-.29-.29-.44-.68-.43-1.09v-6.27l9.91-11.33h-7.73c-.4,0-.77-.16-1.04-.45-.28-.28-.43-.66-.43-1.06v-6.86c-.01-.41,.15-.8,.43-1.09,.27-.28,.65-.43,1.04-.43h22.24Zm5.1,29.01c-.36,0-.7-.16-.91-.45-.24-.3-.36-.68-.35-1.06V23.05c0-.38,.12-.76,.35-1.06,.21-.29,.55-.46,.91-.45h7.13c.22,.01,.43,.05,.63,.13,.26,.09,.5,.2,.74,.33,.23,.13,.43,.29,.61,.48,.15,.15,.24,.36,.25,.58v26.78c0,.38-.12,.76-.35,1.06-.19,.28-.51,.45-.86,.45h-8.14Zm.53-39.85c.95-.89,2.22-1.36,3.51-1.29,1.52,0,2.69,.43,3.54,1.29,.88,.95,1.33,2.22,1.26,3.51,.07,1.29-.39,2.56-1.26,3.51-.84,.86-2.02,1.29-3.54,1.29-1.3,.07-2.57-.4-3.51-1.29-.44-.47-.78-1.02-1.01-1.62-.22-.6-.32-1.25-.28-1.89-.07-1.3,.4-2.57,1.29-3.51h0Zm39.82,40.64c-.73,1.42-1.78,2.64-3.08,3.56-1.48,1.03-3.13,1.77-4.88,2.2-2.12,.53-4.29,.78-6.47,.76-1.4,0-2.8-.16-4.17-.48-1.26-.31-2.51-.62-3.77-.94-.98-.22-1.95-.47-2.91-.76-.53-.15-1.05-.35-1.54-.6-.22-.15-.4-.35-.53-.58-.15-.2-.24-.44-.28-.69l-.37-5.14c-.03-.29,.02-.58,.15-.83,.12-.23,.29-.43,.5-.58,.21-.14,.46-.21,.71-.2,.3,0,.59,.07,.86,.2,.27,.1,.71,.28,1.34,.53,.81,.33,1.63,.64,2.45,.93,.96,.37,1.95,.64,2.96,.81,1.03,.17,2.07,.25,3.11,.25,1.81,0,3.23-.25,4.22-.76,.9-.37,1.49-1.25,1.49-2.22v-.25c-1.02,.62-2.12,1.11-3.26,1.47-1.16,.35-2.36,.52-3.56,.51-3.39,.07-6.62-1.4-8.8-3.99-1.14-1.28-2.02-2.78-2.57-4.4-.56-1.7-.83-3.47-.81-5.26,0-4.28,1.11-7.78,3.33-10.51,2.32-2.76,5.39-4.14,9.2-4.14,1.71,0,3.41,.25,5.05,.76l.68,.33c.39,.19,.88,.45,1.49,.81,.55,.31,1.06,.68,1.53,1.11l.91-1.92c.14-.24,.34-.44,.58-.58,.23-.17,.5-.26,.78-.28h5.21c.4,0,.78,.17,1.06,.45,.3,.28,.47,.68,.45,1.09v24.51c.03,1.68-.35,3.33-1.08,4.84Zm-10.88-12.33c.27-.2,.54-.38,.81-.55v-7.77c-.1,.2-.49,.07-1.16-.4-.78-.57-1.71-.91-2.68-.96-1.51,0-2.58,.45-3.21,1.36-.63,.91-.93,2.32-.93,4.24-.07,1.42,.33,2.83,1.14,3.99,.7,.99,1.84,1.57,3.05,1.54,.47,0,1.18-.29,2.12-.86,.3-.17,.59-.36,.86-.58v-.02h0Zm33.5,11.54c-.4,0-.78-.17-1.06-.45-.3-.28-.47-.68-.45-1.09v-15.64c.03-.81-.12-1.62-.43-2.38-.19-.55-.71-.91-1.29-.91-.56,0-1.12,.07-1.67,.2-.58,.15-1.13,.35-1.67,.61h.05l-.96,.43c-.25,.1-.48,.23-.71,.38v17.33c.01,.41-.15,.81-.45,1.09-.28,.29-.66,.45-1.06,.45h-8.65c-.39,0-.77-.16-1.03-.45-.29-.29-.44-.68-.43-1.09V23.76c0-.39,.15-.77,.43-1.04,.27-.28,.65-.43,1.03-.43h6.17c.23,.02,.46,.09,.66,.2,.23,.11,.44,.26,.61,.45l1.16,1.92c1.43-1.02,3.01-1.82,4.68-2.38,1.72-.57,3.52-.86,5.33-.86,3.32,0,5.81,.93,7.45,2.78,1.64,1.85,2.46,4.55,2.44,8.08v17.33c.01,.41-.15,.81-.45,1.09-.28,.29-.66,.45-1.06,.45l-8.64-.02h0Zm-148.54,19.86c-.07-.06-.14-.13-.2-.2-.58,.29-1.19,.53-1.81,.72-.64,.19-1.3,.28-1.96,.28-1.31,0-2.31-.3-2.99-.91-.7-.64-1.07-1.55-1.03-2.49,0-1.13,.6-2.17,1.57-2.76,.54-.35,1.13-.62,1.75-.79,.7-.19,1.43-.26,2.16-.22l1.59,.08c.01-.34-.13-.66-.39-.87-.31-.21-.67-.31-1.04-.29-.32,0-.63,.03-.95,.08-.31,.06-.61,.15-.91,.26l-.79,.32c-.24,.1-.45,.2-.68,.3-.14,.08-.31,.09-.45,.03-.15-.05-.27-.16-.33-.31l-.72-1.64c-.04-.11-.04-.23,0-.34,.02-.1,.07-.2,.14-.28,.2-.17,.42-.31,.65-.43,.38-.19,.77-.37,1.17-.52,.49-.18,.98-.32,1.49-.42,.54-.1,1.09-.15,1.64-.15,.81-.01,1.62,.07,2.42,.25,.61,.14,1.19,.41,1.68,.8,.45,.38,.79,.87,.98,1.42,.23,.68,.34,1.4,.32,2.13v3.87l.13,.11,.13,.1c.24,0,.46,.13,.55,.36,.03,.11,.03,.22,0,.32-.03,.12-.11,.23-.21,.3l-2,1.66c-.6,.02-1.19-.18-1.66-.57l-.23-.23Zm-1.16-2.54l.29-.12v-.89h-.03c-1.93,0-2.89,.3-2.89,.91,0,.31,.32,.45,.96,.45,.46,0,.93-.08,1.36-.25l.31-.11Zm18.74,3.42c-.27,.53-.67,.98-1.15,1.33-.55,.38-1.16,.66-1.81,.82-.79,.2-1.6,.29-2.42,.28-.53,0-1.05-.06-1.56-.18-.47-.11-.94-.23-1.41-.35-.44-.11-.8-.19-1.08-.28-.2-.06-.39-.13-.58-.23-.08-.06-.15-.13-.2-.22-.07-.08-.11-.17-.12-.27l-.13-1.93c-.01-.11,0-.22,.06-.31,.05-.08,.11-.16,.19-.21,.08-.05,.17-.08,.26-.08,.11,0,.22,.03,.32,.08l.5,.19c.23,.1,.54,.21,.91,.35,.36,.14,.73,.24,1.11,.3,.38,.07,.77,.1,1.16,.1,.54,.03,1.08-.07,1.58-.29,.33-.14,.55-.47,.56-.83v-.1c-.38,.23-.79,.41-1.22,.55-.43,.13-.88,.19-1.33,.19-1.27,.03-2.47-.52-3.29-1.49-.43-.48-.75-1.04-.96-1.65-.21-.63-.31-1.3-.3-1.96-.06-1.41,.38-2.8,1.25-3.93,.84-1.02,2.11-1.59,3.44-1.55,.64,0,1.27,.09,1.89,.28l.25,.12c.14,.07,.33,.17,.56,.3,.2,.11,.39,.25,.57,.4l.34-.72c.05-.09,.13-.16,.22-.22,.09-.06,.19-.1,.29-.1h1.95c.15,0,.29,.05,.4,.16,.11,.1,.17,.25,.17,.4v9.16c.02,.64-.11,1.27-.39,1.85Zm-4.08-4.61c.1-.07,.2-.14,.3-.21v-2.89c-.04,.07-.18,.02-.45-.15-.29-.21-.64-.34-1-.36-.46-.04-.91,.15-1.2,.51-.27,.48-.39,1.03-.35,1.58-.03,.53,.12,1.06,.43,1.5,.26,.37,.69,.58,1.14,.56,.29-.04,.56-.15,.79-.32,.12-.07,.24-.14,.35-.23h0Zm17.19,3.59c-.25,.16-.51,.29-.78,.39-.31,.12-.63,.22-.96,.29-.35,.08-.7,.15-1.06,.19-.36,.04-.73,.06-1.09,.06-1.85,0-3.33-.52-4.44-1.55-1.11-1.03-1.66-2.47-1.66-4.31-.05-1.46,.49-2.87,1.49-3.93,.98-1.04,2.35-1.61,3.78-1.56,1.41-.05,2.76,.53,3.7,1.58,.94,1.12,1.43,2.56,1.36,4.02v.84c0,.15-.05,.29-.16,.39-.1,.11-.24,.17-.38,.17h-5.39c.08,.18,.2,.35,.34,.49,.38,.38,1.02,.57,1.94,.57,.44,0,.88-.06,1.3-.17l.53-.15c.09-.02,.18-.06,.26-.1,.14-.06,.29-.06,.43,0,.14,.06,.25,.17,.31,.3l.7,1.77-.22,.68Zm-5.76-5.89h1.96c-.03-.36-.14-.72-.32-1.03-.13-.23-.37-.37-.63-.37-.33,0-.63,.2-.75,.51-.14,.27-.23,.57-.26,.88h0Zm16.21,6.62c-.31,0-.57-.25-.57-.57h0v-5.85c.02-.31-.04-.62-.16-.91-.07-.2-.27-.34-.48-.34-.21,0-.42,.02-.62,.07-.21,.06-.42,.13-.62,.23l-.36,.16c-.09,.04-.18,.09-.26,.14v6.47c0,.15-.06,.3-.17,.41-.11,.1-.25,.16-.39,.16h-3.23c-.3,0-.54-.23-.55-.53,0-.01,0-.02,0-.04v-9.72c0-.3,.24-.55,.54-.55h2.32c.09,0,.17,.03,.24,.08,.09,.04,.16,.1,.23,.17l.45,.72c.53-.39,1.12-.69,1.74-.91,.64-.22,1.31-.33,1.99-.32,1.25,0,2.18,.35,2.78,1.04,.61,.69,.91,1.7,.91,3.02v6.47c0,.15-.05,.3-.17,.41-.11,.1-.25,.16-.4,.16l-3.22,.02h0Zm15.58-.85c-.01,.09-.05,.17-.1,.24-.05,.07-.11,.13-.18,.18-.4,.18-.82,.31-1.25,.41-.64,.16-1.29,.25-1.95,.25-1.5,.07-2.96-.47-4.06-1.49-1.04-1.08-1.6-2.54-1.53-4.04-.02-.82,.12-1.63,.38-2.41,.25-.69,.65-1.32,1.16-1.84,1.12-1.08,2.63-1.64,4.18-1.56,.65-.02,1.29,.06,1.91,.23,.42,.12,.84,.27,1.24,.45,.08,.04,.16,.11,.21,.19,.06,.07,.1,.17,.11,.26l.24,2.49c.05,.3-.14,.58-.44,.63-.04,0-.07,0-.11,0-.11,0-.21-.04-.3-.11-.13-.1-.28-.18-.43-.24-.24-.11-.48-.21-.72-.3-.47-.2-.98-.3-1.49-.3-.55-.02-1.08,.22-1.41,.66-.36,.53-.54,1.17-.51,1.81-.05,.57,.15,1.12,.55,1.53,.49,.37,1.1,.55,1.72,.5,.49-.01,.97-.12,1.42-.3l.5-.19,.31-.11h-.04c.05-.03,.11-.06,.17-.08,.22-.08,.47-.01,.63,.16,.11,.12,.16,.29,.12,.45l-.34,2.54h0Zm15.63-10.07c.2-.01,.39,.08,.49,.25,.1,.16,.11,.37,.02,.54l-5.31,12.03c-.05,.1-.13,.18-.22,.24-.09,.06-.2,.1-.31,.11h-3.1c-.2,.01-.38-.08-.49-.25-.11-.17-.11-.38,0-.55l1.26-2.89-4.49-8.65c-.11-.18-.11-.4,0-.58,.1-.18,.3-.28,.51-.26h3.74c.11,0,.22,.04,.31,.1,.09,.05,.16,.14,.2,.24l2,4.38,1.81-4.36c.04-.11,.12-.2,.22-.26,.09-.06,.2-.1,.31-.1h3.05Z"/><path class="f" d="M272.81,46.54c4.87,0,8.81-3.94,8.81-8.81,.05-4.87-3.85-8.85-8.72-8.9s-8.85,3.85-8.9,8.72c0,.06,0,.13,0,.19,0,4.87,3.94,8.81,8.81,8.81Z"/></g></g></g></svg>