<?xml version="1.0" encoding="UTF-8"?><svg xmlns="http://www.w3.org/2000/svg" viewBox="0 0 76 76"><defs><style>.d,.e{fill:#aa25e8;}.e{fill-rule:evenodd;}</style></defs><g id="a"/><g id="b"><g id="c"><g><path class="e" d="M76,38c0,20.99-17.01,38-38,38.01C17.02,76,0,58.99,0,38,0,17.02,17.01,0,38,0c20.99,0,38,17.01,38,38ZM36.64,12.65c3.59-.18,7.17,.42,10.52,1.73,1.49-4.19,3.68-6.84,6.24-6.96,5.14-.24,9.79,9.79,10.39,22.42,.26,4.52-.12,9.05-1.13,13.47-2.94,13.7-16.43,22.41-30.12,19.47S10.12,46.35,13.06,32.65c2.41-11.24,12.09-19.45,23.58-20.01Z"/><path class="d" d="M30.61,24.86l24.75,16.66v.1h-1.12l-7.65,.04c-1.2,0-2.4,.03-3.63,.03-.2-.03-.4,.09-.45,.28-1.91,4.33-3.84,8.65-5.78,12.98-.05,.1-.1,.19-.18,.37l-6.02-30.43,.08-.05Z"/></g></g></g></svg>