<?xml version="1.0" encoding="UTF-8"?><svg xmlns="http://www.w3.org/2000/svg" viewBox="0 0 1175.75 768.08"><defs><style>.d{fill:none;stroke:#8e59fd;stroke-dasharray:0 0 3.5 3.5;stroke-linecap:round;stroke-linejoin:round;}</style></defs><g id="a"/><g id="b"><g id="c"><path class="d" d="M444.48,65.44c-27.34,43.79-77.26,69.29-128.58,56.07-29.84-7.68-54.98-28.56-76.11-50.2C211.28,42.08,177.8,7.07,135.35,1.45c-27.19-3.6-62.28,2.28-76.99,30.82-15.56,30.2,4.09,59.51,28.1,80.24,20.57,17.77,46.35,53.6,49.84,81.9C150.14,306.63-.44,387.55,.5,511.25c.99,129.46,156.82,195.47,261.05,137.32,9.99-5.57,19.63-11.82,28.75-18.74,22.81-17.31,41.07-44.52,68.79-54.51,35.89-12.92,72.61,4.88,101.14,26.68,54.52,41.68,66.22,62.29,118.86,105.44,37.86,31.04,86.29,62.89,139.54,59.94,38.16-2.11,82.66-12.74,110.94-38.38,52.58-47.68,54.04-114.68,134.56-180.86,36.48-29.99,80.61-28.78,121.06-46.44,104.85-45.81,118.21-201.26,39.79-277.99-64.4-63.01-160.84-80.13-246.42-92.93-6.56-.98-13.13-1.9-19.7-2.76"/></g></g></svg>