<svg xmlns="http://www.w3.org/2000/svg" viewBox="0 0 3041.98 2038.81"><defs><style>.cls-1{fill:#12db9e;}.cls-2{fill:#8e59fd;}.cls-3{fill:#bf24ff;}.cls-4,.cls-6{fill:none;}.cls-4{stroke:#8e59fd;stroke-linecap:round;stroke-dasharray:3.5 8.5;}.cls-4,.cls-5{stroke-linejoin:round;}.cls-5{fill:#fff;stroke:#adbbf9;}.cls-6{stroke:#12db9e;stroke-miterlimit:10;}</style></defs><g id="Layer_2" data-name="Layer 2"><g id="Layer_1-2" data-name="Layer 1"><path class="cls-1" d="M3006.33,1437.56c-50.42,207.38-205.51,317.63-415.67,354.79C2307,1842.5,2016.8,1539,2235.88,1376.68c87.37-64.72,270.42-71.7,360.7-313.77C2720.12,731.63,3170.73,761.45,3006.33,1437.56Z"/><path class="cls-2" d="M1171.17,161C1308.84-2,1496.83-31.48,1701.48,29.06c276.25,81.73,400.46,482.87,132,530.32-107.08,18.92-274-56.53-462.82,119.81C1112.24,920.51,722.3,692.71,1171.17,161Z"/><path class="cls-3" d="M734.72,1956.41c-175.47,121.49-364.63,100.85-546.38-11-245.35-151-260.55-570.64,11-546.38,108.3,9.68,249.74,126.08,478,5.14C989.82,1238.64,1306.79,1560.32,734.72,1956.41Z"/><path class="cls-4" d="M1297.52,219.85c-30.07,48.17-85,76.21-141.42,61.67-32.82-8.46-60.48-31.41-83.71-55.21-31.38-32.15-68.19-70.66-114.88-76.84-29.91-4-68.5,2.51-84.68,33.9-17.13,33.22,4.49,65.46,30.91,88.26,22.63,19.54,51,59,54.82,90.08,15.2,123.43-150.41,212.43-149.37,348.49,1.09,142.38,172.49,215,287.14,151a270.68,270.68,0,0,0,31.61-20.61c25.1-19,45.17-49,75.66-60,39.48-14.21,79.86,5.37,111.24,29.35,60,45.84,72.84,68.51,130.73,116,41.64,34.14,94.91,69.17,153.48,65.93,42-2.32,90.92-14,122-42.22,57.84-52.44,59.44-126.14,148-198.92,40.13-33,88.67-31.65,133.15-51.09,115.32-50.38,130-221.36,43.76-305.76-70.83-69.3-176.9-88.12-271-102.2q-10.83-1.62-21.67-3"/><path class="cls-5" d="M2301.22,913.85c.07-1.37.19-2.82.36-4.38,1.41-12.75,10.14-11.58,15.58-11.19s12.2.59,14.8-5.34c1.13-2.58,1.08-5.7,1.82-8.49a13.18,13.18,0,0,1,12.4-9.9c5.25,0,10.23,3,14.53,6.73,2.24,1.94,4.76,4.21,7.42,3.48,1.7-.46,3-2.1,4.1-3.82,6.23-10.11,6.19-24.81,13-34.31,7.52-10.5,21.58-10.71,31.1-3.09s15,21.19,17.47,34.88c.81,4.46,1.51,9.34,4.26,12.38,3.92,4.34,9.93,2.9,15.17,2.31,6.09-.68,12.57.31,17.51,4.77a20.21,20.21,0,0,1,6.14,16Z"/><path class="cls-6" d="M1606.22,631.27a35.58,35.58,0,1,0,35.58-35.58A35.58,35.58,0,0,0,1606.22,631.27Z"/></g></g></svg>