<svg xmlns="http://www.w3.org/2000/svg" viewBox="0 0 623.17 176.22"><defs><style>.cls-1,.cls-2,.cls-3{fill:#aa25e8;}.cls-1{fill-rule:evenodd;}.cls-3{isolation:isolate;font-size:41.64px;font-family:BorisBlackBloxx;letter-spacing:0.1em;}.cls-4{fill:#12db9e;}</style></defs><g id="Layer_2" data-name="Layer 2"><g id="Layer_1-2" data-name="Layer 1"><g id="Layer_2-2" data-name="Layer 2"><g id="Layer_1-2-2" data-name="Layer 1-2"><g id="Layer_1-3" data-name="Layer 1-3"><path class="cls-1" d="M167.62,83.8A83.81,83.81,0,1,1,83.8,0h0A83.82,83.82,0,0,1,167.62,83.8ZM80.81,27.89A55.87,55.87,0,0,1,104,31.71c3.28-9.24,8.12-15.09,13.77-15.35,11.33-.54,21.59,21.59,22.91,49.44a106.74,106.74,0,0,1-2.49,29.71A55.94,55.94,0,1,1,80.81,27.89Z"/></g><path class="cls-2" d="M67.51,54.82l54.58,36.75v.23h-2.46l-16.88.1c-2.65,0-5.3.07-8,.07a.9.9,0,0,0-1,.63Q87.44,106.93,81,121.22c-.1.22-.21.43-.4.81L67.34,54.92Z"/><path class="cls-2" d="M251.49,105.79c-1,.82-2.08,1.61-3.12,2.39s-2.16,1.58-3.35,2.4q-6,4-15.71,4-13.6,0-21.85-9.58-7.91-9.25-7.91-24.75t7.69-24.74q8-9.59,22-9.59a29.66,29.66,0,0,1,11.92,2.57c.69.35,1.4.66,2.12.94a18.65,18.65,0,0,1,2,1V29.1a3.25,3.25,0,0,1,.95-2.34,3.14,3.14,0,0,1,2.39-1h19.17a3.44,3.44,0,0,1,3.35,3.34v80.81a3.44,3.44,0,0,1-3.35,3.35H257.51a3.34,3.34,0,0,1-1.78-.56,3.16,3.16,0,0,1-1.23-1.23Zm-7.75-13.66a17.77,17.77,0,0,0,1.51-1.06v-23A9.89,9.89,0,0,1,244,67.5c-.49-.26-1-.54-1.62-.83a10.79,10.79,0,0,0-5.91-1.56,10.53,10.53,0,0,0-9.14,4.4q-3.14,4.39-3.16,12.09,0,6.69,2.73,10.53A8.93,8.93,0,0,0,234.66,96a12.68,12.68,0,0,0,6.69-2.34C242.31,93,243.11,92.54,243.74,92.13Z"/><path class="cls-2" d="M333.86,109a23.67,23.67,0,0,1-4.63,2.34,44.6,44.6,0,0,1-5.63,1.73,55.08,55.08,0,0,1-6.24,1.11,53.6,53.6,0,0,1-6.46.39q-16.39,0-26.2-9.14T274.89,80q0-14,8.81-23.18T306,47.61q13.49,0,21.85,9.36,8,9,8,23.74v4.9a3.3,3.3,0,0,1-.94,2.34,3.07,3.07,0,0,1-2.29,1H300.87a9.07,9.07,0,0,0,2,2.9q3.35,3.33,11.48,3.34a29.35,29.35,0,0,0,7.69-1c1.34-.38,2.38-.67,3.12-.9a9.63,9.63,0,0,0,1.56-.55,3,3,0,0,1,2.51,0,3.41,3.41,0,0,1,1.84,1.78L335.19,105Zm-34-34.89h11.59A13.75,13.75,0,0,0,309.56,68a4.29,4.29,0,0,0-3.68-2.18,4.72,4.72,0,0,0-4.46,3,16.51,16.51,0,0,0-1.56,5.27Z"/><path class="cls-2" d="M393.49,49.28a3.06,3.06,0,0,1,2.28.94,3.3,3.3,0,0,1,1,2.4V67.11l-21.85,24.3H394.6A3.44,3.44,0,0,1,398,94.75v15.16a3.15,3.15,0,0,1-1,2.4,3.34,3.34,0,0,1-2.34,1H342.89a3.11,3.11,0,0,1-2.29-1,3.26,3.26,0,0,1-1-2.4V96.09l21.85-25H344.45a3,3,0,0,1-2.29-1,3.31,3.31,0,0,1-1-2.34V52.62a3.3,3.3,0,0,1,1-2.4,3.09,3.09,0,0,1,2.29-.94Z"/><path class="cls-2" d="M404.74,113.26a2.42,2.42,0,0,1-2-1,3.73,3.73,0,0,1-.78-2.34V50.84a3.73,3.73,0,0,1,.78-2.34,2.42,2.42,0,0,1,2-1h15.72a4.77,4.77,0,0,1,1.39.28,8.73,8.73,0,0,1,1.62.73,5.5,5.5,0,0,1,1.34,1.06,1.87,1.87,0,0,1,.55,1.28v59.07a3.73,3.73,0,0,1-.78,2.34,2.34,2.34,0,0,1-1.89,1Zm1.17-87.89a10.44,10.44,0,0,1,7.75-2.84c3.35,0,5.94.94,7.8,2.84a10.58,10.58,0,0,1,2.79,7.74,10.56,10.56,0,0,1-2.79,7.75c-1.86,1.9-4.45,2.84-7.8,2.84a10.44,10.44,0,0,1-7.75-2.84,10.49,10.49,0,0,1-2.84-7.75,10.49,10.49,0,0,1,2.84-7.74Z"/><path class="cls-2" d="M493.74,115a21.9,21.9,0,0,1-6.79,7.86,32.39,32.39,0,0,1-10.76,4.85,56.72,56.72,0,0,1-14.27,1.67,39.51,39.51,0,0,1-9.19-1.06q-4.41-1.06-8.31-2.06c-2.6-.6-4.73-1.16-6.41-1.68a17.14,17.14,0,0,1-3.4-1.33,4.21,4.21,0,0,1-1.17-1.28,3.18,3.18,0,0,1-.61-1.51L432,109.13a3.09,3.09,0,0,1,.34-1.84,3.51,3.51,0,0,1,1.11-1.28,2.78,2.78,0,0,1,1.56-.45,4.18,4.18,0,0,1,1.9.45c.59.22,1.57.61,2.95,1.17s3.18,1.25,5.4,2.06A34.31,34.31,0,0,0,451.8,111a41.37,41.37,0,0,0,6.85.55c4,0,7.12-.55,9.31-1.67a5.29,5.29,0,0,0,3.29-4.9v-.56a33.17,33.17,0,0,1-7.19,3.23,26.49,26.49,0,0,1-7.86,1.12A24.68,24.68,0,0,1,436.8,100a28.51,28.51,0,0,1-5.68-9.7,35.62,35.62,0,0,1-1.78-11.59q0-14.15,7.35-23.18,7.69-9.14,20.29-9.14a37.23,37.23,0,0,1,11.14,1.67l1.51.73c.85.41,1.95,1,3.29,1.78A19.75,19.75,0,0,1,476.3,53l2-4.23a3.57,3.57,0,0,1,1.28-1.28,3.3,3.3,0,0,1,1.73-.62h11.48a3.34,3.34,0,0,1,2.34,1,3.15,3.15,0,0,1,1,2.4v54.06A23.33,23.33,0,0,1,493.74,115Zm-24-27.2c.59-.44,1.18-.85,1.78-1.22V69.45c-.22.45-1.08.15-2.57-.89a11,11,0,0,0-5.9-2.12q-5,0-7.08,3c-1.38,2-2.06,5.13-2.06,9.36a14.25,14.25,0,0,0,2.51,8.81A8,8,0,0,0,463.15,91q1.56,0,4.68-1.89a16.12,16.12,0,0,0,1.9-1.27Z"/><path class="cls-2" d="M543.62,113.26a3.34,3.34,0,0,1-2.34-1,3.15,3.15,0,0,1-1-2.4V75.36a12.41,12.41,0,0,0-.95-5.24,3,3,0,0,0-2.84-2,15.2,15.2,0,0,0-3.68.45,19.29,19.29,0,0,0-3.68,1.34h.11l-2.11,1a10.13,10.13,0,0,0-1.56.83v38.23a3.15,3.15,0,0,1-1,2.4,3.34,3.34,0,0,1-2.34,1H503.16a3.09,3.09,0,0,1-2.28-1,3.26,3.26,0,0,1-.95-2.4V52.4a3.13,3.13,0,0,1,.95-2.29,3.06,3.06,0,0,1,2.28-.94h13.6a3.55,3.55,0,0,1,1.45.44,4.13,4.13,0,0,1,1.34,1l2.56,4.24a39.16,39.16,0,0,1,10.31-5.24,36.43,36.43,0,0,1,11.76-1.89q11,0,16.44,6.13T566,71.68v38.23a3.15,3.15,0,0,1-1,2.4,3.34,3.34,0,0,1-2.34,1Z"/><text class="cls-3" transform="translate(197.1 158.31)">agency</text><circle class="cls-4" cx="603.74" cy="83.22" r="19.43"/></g></g></g></g></svg>