<svg xmlns="http://www.w3.org/2000/svg" viewBox="0 0 1745.79 449.8"><defs><style>.cls-1,.cls-2,.cls-3{fill:#aa25e8;}.cls-1{fill-rule:evenodd;}.cls-2{font-size:284.51px;letter-spacing:-0.01em;}.cls-2,.cls-3{font-family:BorisBlackBloxx;}.cls-3{font-size:106.29px;letter-spacing:0.1em;}.cls-4{fill:#12db9e;}</style></defs><title>logo1_Asset 1</title><g id="Layer_2" data-name="Layer 2"><g id="Layer_1-2" data-name="Layer 1"><g id="Layer_1-3" data-name="Layer_1"><path class="cls-1" d="M427.83,213.91c0,118.14-95.78,213.92-213.92,213.92S0,332.05,0,213.91,95.77,0,213.91,0,427.83,95.77,427.83,213.91ZM206.25,71.2A142.14,142.14,0,0,1,265.35,81c8.38-23.59,20.75-38.52,35.16-39.2C329.44,40.38,355.62,96.88,359,168c1.34,28.16-1.11,54.37-6.35,75.85A142.79,142.79,0,1,1,206.25,71.2Zm4.37,92.27a50.4,50.4,0,1,1-48,52.73,50.41,50.41,0,0,1,48-52.73Z"/></g><text class="cls-2" transform="translate(503.07 289.09)">dezigns</text><text class="cls-3" transform="translate(503.07 404.09)">agency</text><circle class="cls-4" cx="1696.19" cy="212.43" r="49.6"/></g></g></svg>