<svg xmlns="http://www.w3.org/2000/svg" viewBox="0 0 681.17 176.22"><defs><style>.cls-1,.cls-2,.cls-3{fill:#aa25e8;}.cls-1{fill-rule:evenodd;}.cls-3{font-size:41.64px;font-family:BorisBlackBloxx;letter-spacing:0.1em;}.cls-4{fill:#12db9e;}</style></defs><g id="Layer_2" data-name="Layer 2"><g id="Layer_1-2" data-name="Layer 1"><g id="Layer_1-3" data-name="Layer_1"><path class="cls-1" d="M167.61,83.8A83.81,83.81,0,1,1,83.8,0,83.81,83.81,0,0,1,167.61,83.8ZM80.8,27.89A55.87,55.87,0,0,1,104,31.71c3.28-9.24,8.12-15.09,13.77-15.35,11.33-.54,21.59,21.59,22.91,49.44a106.72,106.72,0,0,1-2.49,29.71A55.94,55.94,0,1,1,80.8,27.89Z"/></g><path class="cls-2" d="M67.5,54.82l54.58,36.75,0,.23h-2.46l-16.88.1c-2.65,0-5.3.07-8,.07a.89.89,0,0,0-1,.63Q87.42,106.92,81,121.22c-.1.22-.21.43-.4.81L67.33,54.92Z"/><path class="cls-2" d="M251.48,105.79c-1,.82-2.08,1.61-3.12,2.39s-2.16,1.58-3.35,2.4q-6,4-15.71,4-13.61,0-21.85-9.58-7.9-9.26-7.91-24.75t7.69-24.74q8-9.59,22-9.59a29.7,29.7,0,0,1,11.92,2.57,23.18,23.18,0,0,0,2.12.94,18.24,18.24,0,0,1,2,1V29.1a3.27,3.27,0,0,1,.95-2.34,3.14,3.14,0,0,1,2.39-1h19.17a3.44,3.44,0,0,1,3.35,3.34v80.81a3.45,3.45,0,0,1-3.35,3.35H257.5a3.32,3.32,0,0,1-1.78-.56,3.14,3.14,0,0,1-1.23-1.23Zm-7.75-13.66a16.61,16.61,0,0,0,1.51-1.06v-23A10.93,10.93,0,0,1,244,67.5c-.49-.26-1-.54-1.62-.83a10.72,10.72,0,0,0-5.91-1.56q-6,0-9.14,4.4T224.17,81.6q0,6.69,2.73,10.53A8.94,8.94,0,0,0,234.65,96a12.77,12.77,0,0,0,6.69-2.34C242.3,93,243.1,92.54,243.73,92.13Z"/><path class="cls-2" d="M333.85,109a23.56,23.56,0,0,1-4.63,2.34,44.84,44.84,0,0,1-5.63,1.73,54.77,54.77,0,0,1-6.24,1.11,53.84,53.84,0,0,1-6.46.39q-16.39,0-26.2-9.14T274.88,80q0-14,8.81-23.18T306,47.61q13.49,0,21.85,9.36,8,9,8,23.74v4.9a3.29,3.29,0,0,1-.94,2.34,3.06,3.06,0,0,1-2.29,1H300.86a9,9,0,0,0,2,2.9q3.34,3.33,11.48,3.34a29.42,29.42,0,0,0,7.69-1c1.34-.38,2.38-.67,3.12-.9a10.06,10.06,0,0,0,1.56-.55,3,3,0,0,1,2.51,0,3.41,3.41,0,0,1,1.84,1.78L335.18,105Zm-34-34.89h11.59a13.76,13.76,0,0,0-1.89-6.07,4.31,4.31,0,0,0-3.68-2.18,4.72,4.72,0,0,0-4.46,3A16.37,16.37,0,0,0,299.85,74.13Z"/><path class="cls-2" d="M393.48,49.28a3.1,3.1,0,0,1,2.28.94,3.29,3.29,0,0,1,.95,2.4V67.11l-21.85,24.3h19.73a3.44,3.44,0,0,1,3.35,3.34v15.16a3.16,3.16,0,0,1-1,2.4,3.31,3.31,0,0,1-2.34,1H342.88a3.12,3.12,0,0,1-2.29-1,3.26,3.26,0,0,1-.95-2.4V96.09l21.85-25H344.44a3,3,0,0,1-2.29-1,3.31,3.31,0,0,1-.95-2.34V52.62a3.29,3.29,0,0,1,.95-2.4,3.11,3.11,0,0,1,2.29-.94Z"/><path class="cls-2" d="M404.73,113.26a2.43,2.43,0,0,1-2-1,3.71,3.71,0,0,1-.78-2.34V50.84a3.71,3.71,0,0,1,.78-2.34,2.43,2.43,0,0,1,2-1h15.72a4.72,4.72,0,0,1,1.39.28,9,9,0,0,1,1.62.73,5.41,5.41,0,0,1,1.34,1.06,1.86,1.86,0,0,1,.55,1.28v59.07a3.71,3.71,0,0,1-.78,2.34,2.33,2.33,0,0,1-1.89,1Zm1.17-87.89a10.46,10.46,0,0,1,7.75-2.84c3.35,0,5.94.94,7.8,2.84a10.57,10.57,0,0,1,2.79,7.74,10.56,10.56,0,0,1-2.79,7.75c-1.86,1.9-4.45,2.84-7.8,2.84a10.46,10.46,0,0,1-7.75-2.84,10.47,10.47,0,0,1-2.84-7.75A10.48,10.48,0,0,1,405.9,25.37Z"/><path class="cls-2" d="M493.73,115a21.87,21.87,0,0,1-6.79,7.86,32.31,32.31,0,0,1-10.76,4.85,56.35,56.35,0,0,1-14.27,1.67,39.46,39.46,0,0,1-9.19-1.06q-4.41-1.07-8.31-2.06c-2.6-.6-4.73-1.16-6.41-1.68a17,17,0,0,1-3.4-1.33,4.14,4.14,0,0,1-1.17-1.28,3.22,3.22,0,0,1-.61-1.51L432,109.13a3.11,3.11,0,0,1,.34-1.84,3.41,3.41,0,0,1,1.11-1.28,2.75,2.75,0,0,1,1.56-.45,4.18,4.18,0,0,1,1.9.45c.59.22,1.57.61,2.95,1.17s3.18,1.25,5.4,2.06a34.46,34.46,0,0,0,6.53,1.79,41.05,41.05,0,0,0,6.85.55c4,0,7.12-.55,9.31-1.67a5.28,5.28,0,0,0,3.29-4.9v-.56a33.32,33.32,0,0,1-7.19,3.23,26.43,26.43,0,0,1-7.86,1.12,24.68,24.68,0,0,1-19.4-8.81,28.64,28.64,0,0,1-5.68-9.7,35.72,35.72,0,0,1-1.78-11.59q0-14.15,7.35-23.18,7.69-9.14,20.29-9.14a37.24,37.24,0,0,1,11.14,1.67l1.51.73c.85.41,1.95,1,3.29,1.78A19.62,19.62,0,0,1,476.29,53l2-4.23a3.45,3.45,0,0,1,1.28-1.28,3.26,3.26,0,0,1,1.73-.62h11.48a3.31,3.31,0,0,1,2.34,1,3.15,3.15,0,0,1,1,2.4v54.06A23.39,23.39,0,0,1,493.73,115Zm-24-27.2c.59-.44,1.18-.85,1.78-1.22V69.45c-.22.45-1.08.15-2.57-.89a11,11,0,0,0-5.9-2.12q-5,0-7.08,3c-1.38,2-2.06,5.13-2.06,9.36a14.26,14.26,0,0,0,2.51,8.81A8,8,0,0,0,463.14,91q1.56,0,4.68-1.89A16.25,16.25,0,0,0,469.72,87.84Z"/><path class="cls-2" d="M543.61,113.26a3.31,3.31,0,0,1-2.34-1,3.15,3.15,0,0,1-1-2.4V75.36a12.37,12.37,0,0,0-.95-5.24,3,3,0,0,0-2.84-2,15,15,0,0,0-3.68.45,19.85,19.85,0,0,0-3.68,1.34h.11l-2.11.95a9.42,9.42,0,0,0-1.56.83v38.23a3.16,3.16,0,0,1-1,2.4,3.31,3.31,0,0,1-2.34,1H503.15a3.11,3.11,0,0,1-2.28-1,3.26,3.26,0,0,1-.95-2.4V52.4a3.15,3.15,0,0,1,.95-2.29,3.1,3.1,0,0,1,2.28-.94h13.6a3.59,3.59,0,0,1,1.45.44,4.07,4.07,0,0,1,1.34,1l2.56,4.24a39.28,39.28,0,0,1,10.31-5.24,36.67,36.67,0,0,1,11.76-1.89q11,0,16.44,6.13T566,71.68v38.23a3.16,3.16,0,0,1-1,2.4,3.31,3.31,0,0,1-2.34,1Z"/><path class="cls-2" d="M616.84,109.36q-7,5.34-19.5,5.34a81.69,81.69,0,0,1-12.77-.94,69.58,69.58,0,0,1-11-2.62,2.94,2.94,0,0,1-1.44-1,3,3,0,0,1-.78-1.67l-1.45-13.71a3.27,3.27,0,0,1,1.17-3.12,2.93,2.93,0,0,1,3.29-.22c.66.3,1.7.72,3.12,1.28s3.23,1.25,5.46,2.06a34.64,34.64,0,0,0,12.82,2.45,11.47,11.47,0,0,0,3.34-.38c.82-.26,1.22-.69,1.22-1.29q0-1.44-3.06-2.67T589,89.74v.11a50.37,50.37,0,0,1-10.93-5.57q-7.47-4.8-7.46-15.27a21.8,21.8,0,0,1,1.89-9.37,17.74,17.74,0,0,1,6-6.91,25.29,25.29,0,0,1,8.36-3.84,40.23,40.23,0,0,1,10.48-1.28,38.15,38.15,0,0,1,5.4.39q2.73.39,5.24.94a47.17,47.17,0,0,1,4.63,1.28c1.41.49,2.63,1,3.67,1.4a2.36,2.36,0,0,1,1.34,1.22,4,4,0,0,1,.56,1.9V67.89A3.13,3.13,0,0,1,616.51,71a3.06,3.06,0,0,1-3.35-.39l-1.95-1.06q-1.5-.84-4.07-2.07A21,21,0,0,0,597.78,65a5.07,5.07,0,0,0-2.67.62,1.71,1.71,0,0,0-1,1.39q0,1.56,3,3.06a100.45,100.45,0,0,0,9.86,4.07q8,3,12.48,7.75A16.91,16.91,0,0,1,623.86,94Q623.86,104,616.84,109.36Z"/><text class="cls-3" transform="translate(197.09 158.31)">agency</text><circle class="cls-4" cx="661.73" cy="83.22" r="19.43"/></g></g></svg>