<?xml version="1.0" encoding="UTF-8"?>
<!DOCTYPE svg PUBLIC "-//W3C//DTD SVG 1.1//EN" "http://www.w3.org/Graphics/SVG/1.1/DTD/svg11.dtd">
<!-- Creator: CorelDRAW 2019 (64-Bit) -->
<svg xmlns="http://www.w3.org/2000/svg" xml:space="preserve" width="3475px" height="1555px" version="1.1" style="shape-rendering:geometricPrecision; text-rendering:geometricPrecision; image-rendering:optimizeQuality; fill-rule:evenodd; clip-rule:evenodd"
viewBox="0 0 4660.39 2085.44"
 xmlns:xlink="http://www.w3.org/1999/xlink"
 xmlns:xodm="http://www.corel.com/coreldraw/odm/2003">
 <defs>
  <style type="text/css">
   <![CDATA[
    .fil0 {fill:#373435}
   ]]>
  </style>
 </defs>
 <g id="Layer_x0020_1">
  <metadata id="CorelCorpID_0Corel-Layer"/>
  <path class="fil0" d="M409.04 0l3842.31 0c224.98,0 409.04,184.07 409.04,409.04l0 0c0,224.97 -184.06,409.04 -409.04,409.04l-3842.31 0c-224.97,0 -409.04,-184.06 -409.04,-409.04l0 0c0,-224.97 184.07,-409.04 409.04,-409.04z"/>
  <path class="fil0" d="M409.04 1267.36l3842.31 0c224.98,0 409.04,184.07 409.04,409.04l0 0c0,224.97 -184.06,409.04 -409.04,409.04l-3842.31 0c-224.97,0 -409.04,-184.06 -409.04,-409.04l0 0c0,-224.97 184.07,-409.04 409.04,-409.04z"/>
 </g>
</svg>
