<svg xmlns="http://www.w3.org/2000/svg" viewBox="0 0 1588.79 1009.11"><defs><style>.cls-1{fill:#12db9e;}.cls-2{fill:#8e59fd;}.cls-3{fill:#bf24ff;}.cls-4{fill:none;stroke:#8e59fd;stroke-linecap:round;stroke-dasharray:3.5 8.5;}.cls-4,.cls-5{stroke-linejoin:round;}.cls-5{fill:#fff;stroke:#adbbf9;}</style></defs><title>svg_Asset 1</title><g id="Layer_2" data-name="Layer 2"><g id="Layer_1-2" data-name="Layer 1"><path class="cls-1" d="M1057.67,68.27c209.76,74.07,307.81,246.48,324.27,468.33,22.22,299.46-323,568.51-468.33,324.27-57.94-97.41-46-288-287.51-407C295.52,291,373.77-173.22,1057.67,68.27Z"/><path class="cls-2" d="M911.53,208c220.17-31.85,387.09,75.28,504.72,264.09,158.78,254.87-22,653.51-264.09,504.71C1055.6,917.43,977.69,743.11,708.47,749.9,340.06,759.21,193.73,311.81,911.53,208Z"/><path class="cls-3" d="M1002,219.68c218.44-42,390.15,57.25,516.42,240.39C1688.83,707.3,1526.76,1113.9,1278,976.5c-99.21-54.8-185.12-225.32-453.73-206C456.68,796.85,289.75,356.72,1002,219.68Z"/><path class="cls-4" d="M439.33,95.68C412.3,139,363,164.16,312.24,151.1c-29.49-7.6-54.34-28.23-75.22-49.62C208.83,72.6,175.74,38,133.79,32.44c-26.88-3.56-61.56,2.25-76.1,30.46-15.39,29.85,4,58.82,27.78,79.31,20.34,17.56,45.81,53,49.26,80.95C148.39,334.08-.43,414.05.5,536.32c1,127.95,155,193.2,258,135.72a242.72,242.72,0,0,0,28.41-18.51c22.55-17.11,40.59-44,68-53.88,35.48-12.76,71.76,4.83,100,26.38,53.9,41.19,65.46,61.57,117.48,104.22,37.41,30.68,85.29,62.16,137.92,59.24C748,787.41,792,776.9,819.94,751.56c52-47.12,53.42-113.35,133-178.76,36-29.63,79.67-28.44,119.65-45.9,103.63-45.28,116.83-198.93,39.32-274.77-63.65-62.27-159-79.19-243.55-91.84q-9.74-1.46-19.48-2.73"/><path class="cls-5" d="M1204.69,859.51c.06-1.23.16-2.54.32-3.94,1.26-11.45,9.11-10.4,14-10.05s11,.53,13.29-4.8c1-2.32,1-5.12,1.64-7.63a11.85,11.85,0,0,1,11.15-8.89c4.72,0,9.19,2.69,13.05,6,2,1.74,4.28,3.78,6.67,3.12,1.53-.42,2.73-1.89,3.69-3.44,5.59-9.08,5.56-22.29,11.68-30.83,6.77-9.43,19.4-9.62,28-2.78s13.46,19,15.7,31.35c.73,4,1.36,8.39,3.83,11.12,3.53,3.9,8.93,2.61,13.64,2.08,5.46-.61,11.29.28,15.73,4.29a18.17,18.17,0,0,1,5.52,14.35Z"/></g></g></svg>